<svg id="Layer_1" data-name="Layer 1" xmlns="http://www.w3.org/2000/svg" viewBox="0 0 52.9 45.73"><defs><style>.cls-1{fill:#16d3d3;}.cls-2{fill:#0e1d47;}</style></defs><path class="cls-1" d="M8.58,17.08A44.1,44.1,0,0,0,3.4,28.48a16.84,16.84,0,0,0-.56,5.86A9.13,9.13,0,0,0,4.76,39.4a9.8,9.8,0,0,0,4.52,3,18.42,18.42,0,0,0,5.84.83,45.52,45.52,0,0,0,12.34-2.18,28.3,28.3,0,0,1-12.2,4.52,18.38,18.38,0,0,1-6.82-.46,11.87,11.87,0,0,1-6-3.87A11.77,11.77,0,0,1,0,34.52a17.24,17.24,0,0,1,1.16-6.74A28,28,0,0,1,8.58,17.08Z"/><path class="cls-1" d="M52.86,13.19a11.57,11.57,0,0,0-2.1-5.95A10.52,10.52,0,0,0,47.2,4.16,3.72,3.72,0,0,0,40,2.51h-.25a23.91,23.91,0,0,0-11,3.18,41.28,41.28,0,0,1,10.92-.84l.32,0A3.71,3.71,0,0,0,43,7.42a3.66,3.66,0,0,0,2.74-.73A8.58,8.58,0,0,1,48.34,9,9.73,9.73,0,0,1,50,13.46a16.83,16.83,0,0,1-.24,5.13A41.85,41.85,0,0,1,46,28.87a24.26,24.26,0,0,0,6.05-9.71A15.63,15.63,0,0,0,52.86,13.19Z"/><path class="cls-2" d="M41.22,27.6V17.15a5.55,5.55,0,0,0-5.54-5.54H17.06a5.55,5.55,0,0,0-5.54,5.54V27.6a5.54,5.54,0,0,0,5.54,5.54H29.3l10.53,6.07,1.68-2.9L36,33.11A5.53,5.53,0,0,0,41.22,27.6ZM17.06,29.78a2.18,2.18,0,0,1-2.18-2.18V17.15A2.18,2.18,0,0,1,17.06,15H35.68a2.19,2.19,0,0,1,2.18,2.18V27.6a2.19,2.19,0,0,1-2.18,2.18Z"/></svg>