<svg id="Layer_1" data-name="Layer 1" xmlns="http://www.w3.org/2000/svg" viewBox="0 0 1080 1080"><defs><style>.cls-1{fill:#1e317e;}.cls-2{fill:#fff;}.cls-3{fill:#16d3d3;}</style></defs><rect class="cls-1" x="0.5" y="-0.5" width="1080" height="1080" rx="191.01"/><path class="cls-2" d="M792.45,620.71V442.22a94.81,94.81,0,0,0-94.63-94.63h-318a94.81,94.81,0,0,0-94.63,94.63V620.71a94.62,94.62,0,0,0,94.63,94.62H588.85L768.71,819l28.69-49.54-94.11-54.65A94.47,94.47,0,0,0,792.45,620.71ZM379.79,657.94a37.23,37.23,0,0,1-37.24-37.23h0V442.22a37.24,37.24,0,0,1,37.24-36.73h318a37.42,37.42,0,0,1,37.24,37.24v178a37.41,37.41,0,0,1-37.24,37.23Z"/><path class="cls-3" d="M235,441a753,753,0,0,0-88.48,194.72,287.45,287.45,0,0,0-9.56,100.09,155.91,155.91,0,0,0,32.79,86.42,167.31,167.31,0,0,0,77.2,51.24,314.59,314.59,0,0,0,99.75,14.18,778,778,0,0,0,210.77-37.23A483.41,483.41,0,0,1,349,927.64a313.83,313.83,0,0,1-116.48-7.86,202.72,202.72,0,0,1-102.49-66.1A201,201,0,0,1,88.4,738.9a294.58,294.58,0,0,1,19.81-115.12A478.36,478.36,0,0,1,235,441Z"/><path class="cls-3" d="M991.26,374.58A197.63,197.63,0,0,0,955.39,273a179.72,179.72,0,0,0-60.8-52.61,63.54,63.54,0,0,0-123-28.18h-4.27a408.32,408.32,0,0,0-187.88,54.32A705,705,0,0,1,766,232.13h5.47A63.39,63.39,0,0,0,822.85,276a62.55,62.55,0,0,0,46.8-12.47A146.66,146.66,0,0,1,914.06,303a166.22,166.22,0,0,1,28.35,76.18,287.27,287.27,0,0,1-4.1,87.62A715.07,715.07,0,0,1,874.09,642.4,414.46,414.46,0,0,0,977.43,476.55,266.89,266.89,0,0,0,991.26,374.58Z"/></svg>